<?xml version="1.0" standalone="no"?>
<!DOCTYPE svg PUBLIC "-//W3C//DTD SVG 20010904//EN"
 "http://www.w3.org/TR/2001/REC-SVG-20010904/DTD/svg10.dtd">
<svg version="1.0" xmlns="http://www.w3.org/2000/svg"
 width="640.000000pt" height="640.000000pt" viewBox="0 0 640.000000 640.000000"
 preserveAspectRatio="xMidYMid meet">
<metadata>
Created by potrace 1.14, written by Peter Selinger 2001-2017
</metadata>
<g transform="translate(0.000000,640.000000) scale(0.100000,-0.100000)"
fill="#000000" stroke="none">
<path d="M787 6163 c-4 -3 -7 -37 -7 -75 0 -45 -4 -68 -12 -68 -6 0 -42 14
-80 31 -56 26 -70 30 -83 19 -23 -19 -19 -31 30 -106 48 -72 51 -84 34 -115
-5 -11 -16 -52 -22 -92 -10 -62 -9 -100 9 -267 18 -166 26 -204 50 -255 30
-65 31 -87 18 -345 l-5 -115 54 -190 55 -190 6 -215 c8 -275 11 -297 38 -306
16 -5 26 0 41 20 17 24 25 26 88 26 80 0 75 14 54 -145 -8 -60 -15 -115 -15
-121 0 -6 -42 -28 -92 -49 -151 -61 -141 -47 -132 -179 l7 -113 -69 -32 c-38
-18 -100 -40 -138 -49 -65 -16 -70 -19 -84 -54 l-14 -36 -107 -7 c-125 -8
-227 -27 -334 -62 l-77 -26 0 -39 c0 -35 2 -39 18 -32 337 148 793 111 1120
-93 93 -57 227 -184 284 -266 62 -92 115 -211 143 -322 46 -181 126 -594 135
-698 25 -286 -58 -471 -257 -570 -86 -43 -171 -65 -314 -78 -289 -28 -539 31
-713 167 -54 43 -56 46 -56 92 0 27 3 51 6 54 3 4 20 2 37 -3 86 -25 349 -79
357 -74 16 10 12 47 -15 126 -41 119 -56 205 -54 317 1 61 -3 108 -9 114 -7 7
-30 7 -74 0 -170 -29 -331 -21 -486 24 -48 15 -95 29 -105 31 -16 5 -17 -6
-17 -131 0 -118 3 -142 21 -177 50 -98 155 -245 231 -323 44 -45 45 -49 52
-169 3 -49 17 -156 32 -238 l27 -150 -32 -33 c-42 -43 -61 -110 -61 -211 0
-74 3 -86 29 -122 64 -89 160 -152 276 -182 43 -11 91 -29 106 -40 27 -20 41
-21 241 -20 l213 1 -105 24 c-58 13 -159 37 -225 53 -115 28 -122 31 -155 71
-53 64 -124 198 -164 310 -20 56 -36 107 -36 114 0 19 95 45 232 64 98 13 203
17 508 17 409 0 449 -3 830 -61 273 -42 797 -161 867 -198 67 -35 115 -79 135
-123 18 -42 19 -52 8 -126 -14 -95 -21 -111 -58 -131 -26 -15 -25 -15 36 -16
42 0 64 4 66 12 16 52 11 51 75 18 48 -24 73 -30 123 -30 38 0 58 4 52 9 -5 5
-57 35 -116 66 l-106 56 1 67 c2 86 -27 149 -89 195 -24 18 -43 35 -44 39 0 3
27 9 60 13 33 4 62 11 65 16 3 5 0 36 -7 68 -6 33 -10 63 -7 65 6 7 334 -20
419 -34 74 -12 281 -63 323 -79 l29 -11 -23 -38 c-74 -123 -211 -368 -237
-424 -2 -5 14 -8 35 -8 37 0 40 3 62 47 26 55 85 159 183 325 38 64 67 122 63
128 -19 31 -210 87 -405 119 -149 25 -189 30 -343 40 -70 5 -130 10 -132 12
-4 5 -55 196 -55 209 0 7 568 10 1700 10 l1700 0 0 35 0 35 -1710 0 -1709 0
-12 43 c-18 67 -68 292 -65 294 1 2 27 -20 57 -48 111 -103 264 -209 301 -209
10 0 47 36 82 81 36 44 92 111 123 149 l58 69 1438 0 1437 1 0 104 0 104 -32
20 c-52 32 -136 53 -233 59 -167 10 -322 -32 -386 -105 -27 -30 -30 -41 -26
-74 5 -34 3 -38 -17 -38 -18 0 -31 16 -62 72 -51 94 -56 98 -116 98 -41 0 -51
3 -55 20 -5 18 -15 19 -144 19 -115 0 -140 -3 -147 -16 -8 -14 -10 -14 -15 1
-5 12 -21 16 -72 16 -55 0 -65 -3 -65 -17 -1 -17 -1 -17 -14 0 -18 24 -131 25
-144 1 -8 -15 -10 -15 -15 0 -5 12 -21 16 -72 16 -55 0 -65 -3 -65 -17 -1 -17
-1 -17 -11 0 -8 13 -24 17 -75 17 -57 0 -67 -3 -71 -20 -15 -57 -23 -1 -23
165 l0 185 704 2 c697 3 705 3 733 24 15 11 38 36 51 54 l22 33 0 1369 c0
1527 5 1413 -69 1464 l-36 24 -1355 0 -1356 0 -53 40 c-29 22 -57 40 -62 40
-17 0 -10 112 8 132 14 16 15 23 5 39 -10 16 -9 19 7 19 37 0 44 23 31 100 -7
39 -10 74 -7 77 3 3 31 1 61 -4 51 -9 61 -7 123 20 79 34 93 44 93 64 0 8 -32
48 -71 88 -39 41 -68 78 -65 84 3 5 21 13 39 16 72 16 137 46 137 64 0 26 -12
34 -135 82 -60 23 -116 47 -122 52 -8 6 -13 33 -13 68 0 32 -4 61 -10 64 -5 3
-250 36 -545 72 l-535 67 -234 -31 -234 -30 -133 19 c-154 22 -271 17 -331
-13 -21 -11 -40 -19 -43 -19 -3 0 -19 23 -36 50 -50 81 -61 82 -130 14 -32
-32 -61 -56 -64 -53 -2 3 -23 33 -45 67 -37 58 -63 75 -83 55z m1350 -149 c-3
-3 -12 -4 -19 -1 -8 3 -5 6 6 6 11 1 17 -2 13 -5z m471 -71 c-10 -2 -26 -2
-35 0 -10 3 -2 5 17 5 19 0 27 -2 18 -5z m-51 -599 c-3 -3 -12 -4 -19 -1 -8 3
-5 6 6 6 11 1 17 -2 13 -5z m-1790 -26 c-3 -8 -6 -5 -6 6 -1 11 2 17 5 13 3
-3 4 -12 1 -19z m2243 -35 c26 -6 36 -15 38 -32 3 -22 1 -23 -30 -17 -85 17
-215 18 -270 2 -79 -23 -153 -74 -153 -106 0 -35 29 -37 73 -6 66 45 111 59
197 58 44 0 100 -7 125 -14 l45 -14 3 -60 3 -59 -83 0 c-110 0 -189 -29 -264
-98 -116 -106 -142 -241 -73 -383 34 -73 90 -126 168 -163 50 -23 66 -26 161
-24 58 1 118 3 133 5 28 3 30 0 61 -87 18 -49 44 -113 59 -141 40 -79 36 -84
-126 -150 -78 -31 -147 -62 -153 -68 -26 -26 -82 -195 -93 -281 -21 -163 -9
-143 -153 -255 l-130 -102 -77 19 c-62 15 -77 22 -79 39 -2 16 -47 45 -176
117 l-174 97 -208 47 c-228 51 -247 52 -582 37 -134 -6 -142 -5 -142 12 0 11
7 73 15 139 8 66 15 122 15 124 0 2 129 2 288 -1 268 -5 291 -7 350 -28 54
-20 65 -21 77 -9 21 22 135 324 135 357 0 9 -27 47 -59 83 -65 74 -64 71 -77
286 l-7 112 53 93 c76 133 69 128 164 127 l81 0 46 -56 46 -55 7 -151 c4 -101
11 -154 19 -160 14 -10 228 1 240 12 4 5 13 167 18 362 6 195 14 357 18 361
10 11 330 47 386 43 28 -1 66 -7 85 -12z m37 -328 c27 -8 69 -29 92 -45 46
-34 101 -112 101 -145 0 -20 -4 -20 -187 -18 -272 4 -393 12 -393 27 0 22 58
103 93 130 79 60 195 80 294 51z m2910 -128 l28 -27 3 -1333 c1 -732 0 -1347
-3 -1366 -4 -18 -17 -44 -30 -57 l-24 -24 -1542 0 -1541 0 7 103 c4 56 10 122
14 147 l6 45 1495 3 c1180 2 1496 5 1502 15 10 16 10 2378 0 2394 -6 10 -278
13 -1281 15 l-1272 3 -18 52 c-10 29 -16 55 -13 58 3 3 599 4 1324 3 l1318 -3
27 -28z m-3039 -143 c15 -4 22 -14 22 -31 0 -58 49 -113 101 -113 53 0 83 38
76 98 l-5 42 69 0 c65 0 69 -1 69 -22 -1 -68 -77 -160 -169 -205 -45 -22 -67
-27 -132 -26 -89 0 -157 27 -218 84 -36 35 -81 120 -81 157 0 22 2 22 123 22
67 0 132 -3 145 -6z m2897 -1154 l0 -1155 -37 -3 -38 -3 0 1135 0 1136 -1210
0 c-1167 0 -1210 1 -1210 18 0 10 3 22 7 25 3 4 565 6 1247 5 l1241 -3 0
-1155z m-2781 1114 c20 -8 21 -34 1 -34 -8 0 -15 2 -15 4 0 2 -3 11 -6 20 -7
18 -4 19 20 10z m281 -297 c29 -22 8 -37 -50 -37 -51 0 -65 9 -65 41 0 14 94
11 115 -4z m573 -9 l-3 -23 -255 0 -255 0 -3 23 -3 22 261 0 261 0 -3 -22z
m1571 -202 c7 -8 10 -20 6 -26 -4 -6 -108 -10 -306 -10 -288 0 -299 1 -299 19
0 11 6 21 13 24 6 2 138 5 293 6 240 2 282 0 293 -13z m-1661 -33 l3 -23 -250
0 -251 0 0 25 0 25 248 -2 247 -3 3 -22z m660 0 l3 -23 -305 0 c-290 0 -306 1
-306 18 0 10 3 22 7 25 4 4 140 6 302 5 l296 -3 3 -22z m-1038 -108 c0 -25 0
-25 -96 -25 l-97 0 34 24 c27 19 47 24 97 25 60 1 62 0 62 -24z m-102 -112 l3
-23 -178 0 c-156 0 -175 2 -157 14 37 27 88 35 209 33 116 -2 120 -3 123 -24z
m1200 0 l3 -23 -540 0 c-518 0 -541 1 -541 18 0 10 3 22 7 25 3 4 245 6 537 5
l531 -3 3 -22z m644 21 c3 -3 4 -14 1 -25 -5 -18 -17 -19 -304 -19 l-299 0 0
25 0 25 298 0 c164 0 301 -3 304 -6z m-1624 -154 c3 -20 0 -20 -303 -20 -286
0 -306 1 -303 18 3 15 23 17 203 22 110 3 245 4 300 3 92 -2 100 -4 103 -23z
m-1695 -219 c176 -40 180 -42 324 -122 l145 -82 -6 -41 c-9 -56 -18 -62 -69
-48 -23 7 -107 26 -187 44 l-145 32 -385 1 c-319 2 -403 5 -490 20 -142 24
-140 22 -140 101 l0 65 68 32 c63 29 76 32 222 38 85 3 229 5 320 4 153 -2
178 -6 343 -44z m1695 -3 l-3 -23 -300 0 -300 0 -3 23 -3 22 306 0 306 0 -3
-22z m597 -3 c0 -19 -7 -20 -255 -20 l-255 0 -3 23 -3 22 258 -2 c250 -3 258
-4 258 -23z m359 16 c4 -5 3 -16 0 -25 -5 -14 -28 -16 -155 -16 l-149 0 0 25
0 25 149 0 c83 0 152 -4 155 -9z m-954 -126 l0 -25 -299 0 c-198 0 -302 4
-306 10 -4 6 -4 17 -1 25 5 13 52 15 306 15 l300 0 0 -25z m-1629 -184 c159
-21 365 -78 463 -128 130 -66 243 -161 328 -277 125 -170 131 -254 67 -836
-20 -178 -21 -255 -3 -385 l7 -50 -44 55 c-213 263 -410 609 -449 785 -18 85
-19 86 -48 83 -40 -4 -40 -55 -2 -170 65 -193 253 -506 462 -767 l116 -145 27
-128 c14 -70 61 -268 104 -439 42 -170 74 -312 70 -314 -4 -3 -51 -8 -105 -11
-92 -6 -108 -4 -234 29 -352 93 -754 161 -1120 188 -120 9 -440 11 -714 5
l-59 -1 -13 55 c-7 30 -13 68 -14 84 0 23 3 27 18 21 64 -26 443 -12 567 21
159 42 319 161 375 278 48 101 63 183 62 336 -2 146 -22 278 -102 640 -48 219
-60 260 -113 365 -108 216 -265 369 -495 481 -115 57 -289 109 -404 121 -54 5
-75 19 -45 27 42 12 140 48 190 69 l57 24 488 -3 c268 -1 521 -7 563 -13z
m479 -11 c0 -20 -5 -30 -15 -30 -17 0 -18 4 -9 38 9 32 24 27 24 -8z m1395
-35 c0 -20 -8 -20 -532 -23 l-533 -2 0 25 0 25 533 -2 c524 -3 532 -3 532 -23z
m-465 -110 l0 -25 -300 0 -300 0 0 25 0 25 300 0 300 0 0 -25z m650 0 l0 -25
-297 2 -298 3 -3 23 -3 22 300 0 301 0 0 -25z m-712 -112 c3 -23 3 -23 -147
-23 l-151 0 0 25 0 26 148 -3 c144 -3 147 -3 150 -25z m62 -108 l0 -25 -180 0
c-171 0 -180 1 -180 19 0 11 6 22 13 24 6 3 87 6 180 6 l167 1 0 -25z m250
-120 l0 -25 -299 0 c-231 0 -300 3 -304 13 -12 36 -2 37 304 37 l299 0 0 -25z
m365 0 c0 -19 -7 -20 -150 -20 -149 0 -150 0 -151 23 l-1 23 151 -3 c143 -3
151 -4 151 -23z m-720 -110 c0 -19 -8 -20 -114 -23 -63 -1 -120 -1 -127 2 -7
3 -10 14 -7 26 5 20 11 20 127 18 113 -3 121 -4 121 -23z m1493 -117 l-3 -23
-300 0 -300 0 -3 23 -3 22 306 0 306 0 -3 -22z m-1243 -723 l0 -160 -312 -3
-312 -2 -8 37 c-4 21 -7 79 -7 128 0 50 3 107 7 128 l8 37 312 -2 312 -3 0
-160z m423 156 c-1 -5 -46 -38 -98 -73 -78 -51 -95 -68 -95 -88 0 -39 27 -35
105 15 40 25 74 44 76 42 3 -2 -39 -52 -93 -111 l-97 -107 -75 3 -76 3 -3 150
c-1 82 0 155 2 162 4 10 47 13 182 13 104 0 174 -4 172 -9z m582 -176 c0 -166
-8 -223 -23 -165 -4 17 -14 20 -71 20 -56 0 -66 -3 -66 -17 -1 -17 -1 -17 -14
0 -10 13 -28 17 -74 17 -48 0 -63 -4 -71 -17 -8 -13 -10 10 -11 84 0 104 7
126 31 96 8 -9 33 -25 57 -35 34 -15 46 -17 58 -8 26 22 16 49 -23 65 -55 23
-133 105 -133 140 0 3 77 5 170 5 l170 0 0 -185z m-396 104 c-3 -5 -14 -9 -24
-9 -13 0 -23 -14 -35 -52 -9 -29 -31 -83 -48 -120 l-30 -68 -44 0 c-36 0 -46
-4 -50 -20 -7 -28 -26 -25 -40 6 -12 26 -7 32 114 166 120 131 127 138 144
122 10 -9 16 -21 13 -25z m6 -184 l0 -65 -30 0 c-16 0 -30 3 -30 6 0 16 46
124 53 124 4 0 7 -29 7 -65z m-3955 5 c44 -11 104 -23 135 -26 30 -3 64 -7 76
-9 l21 -5 -23 -79 c-12 -43 -26 -107 -30 -140 -3 -34 -8 -61 -11 -61 -20 0
-94 51 -141 98 -43 41 -71 81 -101 143 -45 95 -50 113 -23 105 9 -3 53 -15 97
-26z m489 -55 c-9 -35 13 -179 41 -276 13 -46 23 -85 21 -87 -3 -3 -180 37
-263 59 -39 11 -43 15 -43 43 0 17 11 80 25 139 13 59 22 114 19 121 -4 10 19
15 93 22 54 5 101 8 106 6 4 -2 4 -14 1 -27z m3041 -45 c-4 -6 -150 -10 -406
-10 -259 0 -399 4 -399 10 0 7 142 10 406 10 267 0 403 -3 399 -10z m135 0 c0
-5 -9 -10 -21 -10 -11 0 -17 5 -14 10 3 6 13 10 21 10 8 0 14 -4 14 -10z m130
0 c0 -5 -13 -10 -30 -10 -16 0 -30 5 -30 10 0 6 14 10 30 10 17 0 30 -4 30
-10z m195 0 c4 -6 -13 -10 -44 -10 -28 0 -51 5 -51 10 0 6 20 10 44 10 25 0
48 -4 51 -10z m155 0 c0 -5 -22 -10 -50 -10 -27 0 -50 5 -50 10 0 6 23 10 50
10 28 0 50 -4 50 -10z m160 0 c0 -5 -22 -10 -50 -10 -27 0 -50 5 -50 10 0 6
23 10 50 10 28 0 50 -4 50 -10z m260 0 c0 -5 -25 -10 -55 -10 -30 0 -55 5 -55
10 0 6 25 10 55 10 30 0 55 -4 55 -10z m150 0 c0 -5 -22 -10 -50 -10 -27 0
-50 5 -50 10 0 6 23 10 50 10 28 0 50 -4 50 -10z m150 0 c0 -5 -22 -10 -50
-10 -27 0 -50 5 -50 10 0 6 23 10 50 10 28 0 50 -4 50 -10z m160 0 c0 -5 -22
-10 -50 -10 -27 0 -50 5 -50 10 0 6 23 10 50 10 28 0 50 -4 50 -10z m160 0 c0
-5 -25 -10 -55 -10 -30 0 -55 5 -55 10 0 6 25 10 55 10 30 0 55 -4 55 -10z
m145 0 c4 -6 -15 -10 -49 -10 -31 0 -56 5 -56 10 0 6 22 10 49 10 28 0 53 -4
56 -10z m791 -46 c104 -26 168 -82 112 -98 -72 -19 -278 -28 -402 -17 -125 12
-166 22 -166 41 0 21 105 73 170 83 68 11 226 6 286 -9z m-2656 -27 c0 -7 -19
-32 -43 -55 l-43 -42 -312 0 -312 0 -10 26 c-6 14 -10 39 -10 55 l0 29 365 0
c292 0 365 -3 365 -13z m1967 5 c10 -7 53 -85 53 -97 0 -3 -450 -5 -1000 -5
-550 0 -1000 3 -1000 6 0 3 19 28 43 55 l42 50 926 -2 c509 0 931 -4 936 -7z
m-2127 -187 c0 -12 -175 -215 -185 -215 -19 0 -145 92 -215 158 l-65 61 233 1
c127 0 232 -2 232 -5z m-3140 -74 l0 -34 -40 44 c-21 24 -39 47 -40 51 0 3 18
-1 40 -10 35 -15 40 -21 40 -51z m295 -317 l80 -33 19 -96 c10 -52 17 -98 14
-100 -3 -3 -45 -12 -94 -19 -49 -8 -108 -21 -131 -30 -23 -8 -44 -12 -47 -8
-11 18 -47 233 -53 314 l-6 89 69 -43 c38 -23 105 -57 149 -74z m-175 -491
c24 -74 112 -257 138 -286 55 -62 -86 4 -154 73 -53 53 -58 69 -52 163 5 70
20 117 38 117 4 0 18 -30 30 -67z"/>
<path d="M1975 4748 c-28 -96 -14 -190 36 -240 16 -16 29 -31 29 -34 0 -2 -16
-4 -35 -4 -24 0 -37 6 -45 20 -21 39 -76 16 -60 -25 24 -63 124 -82 187 -37
42 30 101 147 86 170 -18 29 -46 20 -65 -20 -10 -21 -25 -38 -33 -38 -37 0
-56 104 -36 194 12 49 5 66 -25 66 -19 0 -26 -8 -39 -52z"/>
</g>
</svg>
